<svg width="50" height="38" viewBox="0 0 50 38" fill="none" xmlns="http://www.w3.org/2000/svg">
<path d="M5.53792 20.5334L0 14.3822L12.9277 0.0176252L20.1764 8.07235L27.4427 0L35.9259 9.4295L44.4092 0.0176252L50 6.22171L28.6243 29.9805L23.0511 23.7764L30.3351 15.6512L27.4074 12.3905L20.1058 20.4981L12.8395 12.4258L5.53792 20.5334Z" fill="white"/>
<path d="M13.5096 32.0249L11.7459 34.6334L9.89404 32.0249H8.57129L11.1639 35.6733V37.8765H12.2926V35.6733L14.8147 32.0249H13.5096Z" fill="white"/>
<path d="M19.6647 34.5632V35.5855H21.5871V36.7311C21.1638 36.8545 20.6523 36.925 20.1761 36.925C18.7123 36.925 17.8305 36.2023 17.8305 34.9686C17.8305 33.8053 18.7828 33.0122 20.1761 33.0122C20.8463 33.0122 21.5518 33.1532 22.2044 33.4352L22.3102 33.4704L22.6629 32.501L22.5747 32.4658C21.7811 32.1309 20.9522 31.9723 20.1232 31.9723C18.0597 31.9723 16.6841 33.2061 16.6841 35.0215C16.6841 36.8721 17.9892 37.9649 20.1585 37.9649C21.0227 37.9649 21.9927 37.771 22.6629 37.4537L22.7158 37.4185V34.5632H19.6647Z" fill="white"/>
<path d="M39.9646 36.8542V35.4266H42.8041V34.3867H39.9646V33.0472H43.0863V32.0249H38.8535V37.8765H43.1392V36.8542H39.9646Z" fill="white"/>
<path d="M46.5078 34.422C45.626 34.2987 45.0969 34.1929 45.0969 33.6994C45.0969 33.2764 45.5378 33.0296 46.2961 33.0296C47.1074 33.0296 47.7953 33.3293 48.0598 33.4703L48.148 33.5232L48.5889 32.6243L48.5007 32.5714C47.8835 32.2189 47.0369 32.0074 46.2256 32.0074C44.7794 32.0074 43.9152 32.6771 43.9152 33.7699C43.9152 34.2987 44.0916 34.704 44.4796 34.9684C44.9381 35.3033 45.6083 35.3914 46.208 35.4796C47.0545 35.6029 47.566 35.6911 47.566 36.1493C47.566 36.8719 46.5607 36.9424 46.1198 36.9424C45.4672 36.9424 44.8676 36.7838 44.3208 36.4489L44.2327 36.3961L43.7212 37.3126L43.8094 37.3655C44.2503 37.6475 44.991 38 46.1198 38C47.7071 38 48.7476 37.2597 48.7476 36.1141C48.7476 34.7393 47.5131 34.563 46.5078 34.422Z" fill="white"/>
<path d="M2.41597 37.8778L3.56236 34.6524L5.48476 37.8602L7.40716 34.6524L8.55354 37.8778H9.71756L7.67171 31.9733L5.48476 35.657L3.29781 31.9733L1.25195 37.8778H2.41597Z" fill="white"/>
<path d="M24.3563 37.8767L24.956 36.8016H27.6897L28.2893 37.8767H29.5591L26.314 31.9723L23.0688 37.8767H24.3563ZM26.3316 34.3517L27.1958 35.9027H25.4674L26.3316 34.3517Z" fill="white"/>
<path d="M31.0051 37.8767L32.1515 34.5456L34.0739 37.8591L35.9963 34.5456L37.1427 37.8767H38.3067L36.2608 31.9723L34.0739 35.656L31.8869 31.9723L29.8411 37.8767H31.0051Z" fill="white"/>
<path d="M14.8093 35.9644L13.8113 36.9617L14.8093 37.9591L15.8073 36.9617L14.8093 35.9644Z" fill="white"/>
<path d="M42.5396 18.841C42.0458 18.841 41.6401 19.2464 41.6401 19.7399C41.6401 20.2334 42.0458 20.6388 42.5396 20.6388C43.0334 20.6388 43.4391 20.2334 43.4391 19.7399C43.4391 19.2464 43.0334 18.841 42.5396 18.841ZM42.5396 20.5154C42.1163 20.5154 41.7636 20.1629 41.7636 19.7399C41.7636 19.3169 42.1163 18.9644 42.5396 18.9644C42.9629 18.9644 43.3156 19.3169 43.3156 19.7399C43.3156 20.1629 42.9805 20.5154 42.5396 20.5154ZM42.9453 20.1629C42.9453 20.1453 42.9453 20.11 42.9453 20.0924V20.0219C42.9453 19.969 42.9276 19.9161 42.8923 19.8633C42.8571 19.8104 42.8042 19.7751 42.716 19.7751C42.7689 19.7575 42.8218 19.7575 42.8571 19.7223C42.9276 19.687 42.9453 19.6165 42.9453 19.5284C42.9453 19.405 42.8923 19.3169 42.7865 19.2816C42.7336 19.264 42.6454 19.2464 42.522 19.2464H42.1692V20.2334H42.3456V19.8456H42.4867C42.5749 19.8456 42.6454 19.8633 42.6807 19.8809C42.7512 19.9161 42.7689 19.9866 42.7689 20.11V20.1805V20.2158C42.7689 20.2158 42.7689 20.2158 42.7689 20.2334C42.7689 20.2334 42.7689 20.2334 42.7689 20.251H42.9276V20.2334C42.9452 20.1981 42.9453 20.1805 42.9453 20.1629ZM42.6807 19.687C42.6454 19.7046 42.5925 19.7046 42.522 19.7046H42.3632V19.3521H42.5043C42.5925 19.3521 42.6631 19.3698 42.716 19.3874C42.7512 19.405 42.7865 19.4579 42.7865 19.5284C42.7865 19.6165 42.7512 19.6694 42.6807 19.687Z" fill="white"/>
</svg>
