<svg width="50" height="50" viewBox="0 0 50 50" fill="none" xmlns="http://www.w3.org/2000/svg">
<path d="M4.53345 22.5085C12.2209 15.0163 19.9132 7.52884 27.5644 0C30.705 3.151 33.9073 6.24291 37.0975 9.34663C36.1765 10.2721 35.2301 11.1739 34.2958 12.0863C32.0483 9.89031 29.8082 7.68603 27.5511 5.4983C21.7528 11.1727 15.9412 16.8365 10.1405 22.5085C15.7548 27.9843 21.3619 33.4696 26.9774 38.9443C32.7757 33.2711 38.5716 27.5955 44.3856 21.9376C42.1043 19.6802 39.7915 17.4522 37.4969 15.2054C38.4336 14.2977 39.357 13.3758 40.3022 12.4764C43.5215 15.6392 46.7516 18.7902 49.9999 21.9235C43.5565 28.2444 37.0672 34.5216 30.6239 40.8425C29.4015 42.0327 28.1865 43.2311 26.9593 44.4166C19.4909 37.1076 12.0079 29.8116 4.53345 22.5085Z" fill="white"/>
<path d="M38.8235 7.89751C39.8377 6.91297 40.8422 5.92015 41.8648 4.94507C42.8596 5.9367 43.8738 6.90942 44.882 7.88805C43.875 8.8785 42.856 9.85713 41.8503 10.8476C40.8446 9.86068 39.8365 8.87614 38.8235 7.89751Z" fill="white"/>
<path d="M27.5368 9.77332C31.8356 13.9656 36.1259 18.1661 40.4319 22.3501C39.4637 23.298 38.4907 24.24 37.5225 25.1868C34.0999 21.8608 30.6967 18.5172 27.2899 15.1771C26.4681 15.9607 25.6585 16.7561 24.8343 17.5385C24.7508 15.9075 24.6443 14.2764 24.562 12.6442C25.5617 11.6951 26.5468 10.7319 27.5368 9.77332Z" fill="white"/>
<path d="M14.6162 22.3927C17.3489 19.7251 20.0744 17.0504 22.8168 14.3923C22.9173 15.995 23.0032 17.5976 23.1351 19.198C21.1903 21.1375 19.2248 23.0593 17.2497 24.9705C16.3759 24.1077 15.4948 23.2508 14.6162 22.3927Z" fill="white"/>
<path d="M25.2869 21.2073C26.5225 20.6648 27.9785 20.7109 29.2105 21.2416C31.2655 22.1067 32.8473 24.1195 32.9344 26.3345C32.9477 27.9561 32.3656 29.5517 31.424 30.8778C30.3191 32.4355 28.7615 33.6624 27.0284 34.4992C26.1002 33.6068 25.1804 32.7062 24.2509 31.8138C25.5023 31.1945 26.8372 30.6095 27.7679 29.5446C28.2689 28.9323 28.6925 28.2409 28.9031 27.4797C29.0411 26.9077 29.0713 26.2411 28.701 25.7423C28.1237 24.9268 26.9038 24.6455 26.0058 25.1041C24.1154 25.9716 22.864 27.6783 21.6307 29.255C20.792 28.4466 19.9582 27.6322 19.1316 26.812C20.7073 24.5344 22.6135 22.2781 25.2869 21.2073Z" fill="white"/>
<path d="M1.62173 25.5036C1.87709 25.2613 2.12156 25.0095 2.39749 24.7897C3.3197 25.7175 4.26853 26.6193 5.19921 27.54C4.95232 27.7858 4.70422 28.0293 4.4537 28.2728C4.10636 27.9383 3.78685 27.5766 3.42257 27.2599C2.5403 28.1215 1.65077 28.9772 0.773346 29.8448C0.516774 29.6013 0.258992 29.359 0 29.1191C0.883478 28.2444 1.78269 27.3864 2.66375 26.5106C2.31399 26.1761 1.96665 25.8416 1.62173 25.5036Z" fill="white"/>
<path d="M2.1626 31.211C3.29539 30.107 4.42938 29.0043 5.56217 27.9004C5.81753 28.1427 6.07168 28.3885 6.32341 28.6344C5.88652 29.0622 5.44357 29.4853 5.00788 29.9156C5.4472 30.3375 5.87926 30.7665 6.31978 31.1885C6.75789 30.7606 7.19479 30.3328 7.63169 29.9061C7.88342 30.1531 8.13515 30.4025 8.38567 30.6519C7.26377 31.7594 6.13341 32.8574 5.00304 33.9577C4.74284 33.7178 4.48263 33.4791 4.22364 33.2391C4.67385 32.7924 5.13496 32.3574 5.58396 31.9095C5.14706 31.4828 4.70653 31.0597 4.26842 30.6354C3.81821 31.0738 3.37163 31.5159 2.92142 31.9544C2.66727 31.7085 2.41433 31.4603 2.1626 31.211Z" fill="white"/>
<path d="M5.39648 34.3749C6.54137 33.271 7.65601 32.1352 8.82268 31.0537C9.60329 31.8621 10.425 32.6339 11.2262 33.4235C10.9769 33.6646 10.7252 33.9033 10.4722 34.1421C9.92279 33.6019 9.37092 33.0642 8.82147 32.524C8.62662 32.7037 8.4342 32.8869 8.2454 33.0736C8.6593 33.4755 9.06836 33.8832 9.49437 34.2733C9.27047 34.5404 9.0018 34.7661 8.75128 35.0084C8.33011 34.6066 7.92589 34.1893 7.49626 33.7958C7.29899 33.9943 7.10172 34.1917 6.90082 34.3879C7.45632 34.9233 8.01666 35.454 8.56611 35.9941C8.31801 36.2423 8.06749 36.4894 7.81576 36.734C7.00974 35.9469 6.20372 35.1609 5.39648 34.3749Z" fill="white"/>
<path d="M9.43506 38.3214C10.563 37.2057 11.7055 36.1041 12.8395 34.9943C13.6152 35.7437 14.3801 36.5025 15.1559 37.2518C14.909 37.5012 14.6524 37.7399 14.3983 37.9822C13.8767 37.4728 13.3587 36.9599 12.8395 36.4493C12.6483 36.6407 12.4619 36.8358 12.2767 37.0331C12.6688 37.3924 13.0549 37.7565 13.4373 38.1252C13.1892 38.3699 12.9411 38.6146 12.6942 38.8604C12.307 38.4845 11.9209 38.1075 11.5336 37.7317C11.0822 38.1678 10.6368 38.611 10.1854 39.0471C9.9361 38.8037 9.68558 38.5614 9.43506 38.3214Z" fill="white"/>
<path d="M11.6086 40.4382C13.1807 39.7692 14.7371 39.0636 16.3104 38.3947C16.5476 38.6228 16.7861 38.8521 17.0245 39.0802C16.3237 40.6025 15.6254 42.126 14.9223 43.6471C14.6451 43.3906 14.3692 43.133 14.0969 42.873C14.2095 42.6555 14.3196 42.4368 14.4309 42.2182C13.9904 41.7903 13.5583 41.3554 13.1154 40.9299C12.8842 41.0303 12.6531 41.1296 12.4207 41.2277C12.1484 40.9653 11.8773 40.7029 11.6086 40.4382ZM14.1986 40.4488C14.4418 40.6888 14.6863 40.9275 14.9368 41.1615C15.1522 40.7195 15.358 40.2751 15.5649 39.8307C15.1087 40.0352 14.6548 40.2455 14.1986 40.4488Z" fill="white"/>
<path d="M15.1016 43.8551C16.2331 42.7465 17.3696 41.6402 18.5036 40.5327C19.2128 41.3222 20.2645 41.925 20.5356 43.0041C20.5573 43.9946 19.4633 44.5867 18.5532 44.5276C18.3402 45.219 18.1332 45.9116 17.9251 46.6042C17.631 46.3229 17.3417 46.0369 17.0537 45.7509C17.2316 44.9271 17.8827 44.0277 17.3163 43.2157C16.7923 43.6258 16.3542 44.1305 15.8664 44.5796C15.6087 44.3397 15.3533 44.0986 15.1016 43.8551ZM17.9372 42.542C18.2881 42.8776 18.6391 43.2133 18.9949 43.5454C19.1995 43.4166 19.4028 43.2878 19.6061 43.1578C19.2551 42.7665 18.9054 42.3741 18.5483 41.9888C18.3414 42.1709 18.1381 42.3552 17.9372 42.542Z" fill="white"/>
<path d="M18.1731 46.8347C19.3519 45.7155 20.4834 44.5489 21.684 43.4521C22.0011 44.504 21.661 45.5843 21.6066 46.6456C22.7006 46.5747 23.8104 46.3064 24.902 46.5546C23.785 47.7389 22.5844 48.8428 21.4395 49.9999C21.1515 49.7789 20.9095 49.5083 20.648 49.2601C21.2568 48.6762 21.8692 48.0947 22.4743 47.5061C21.8329 47.564 21.1927 47.6243 20.5524 47.681C20.6069 47.0664 20.6674 46.4518 20.7219 45.8372C20.1264 46.4152 19.5346 46.9979 18.938 47.5758C18.6802 47.33 18.4127 47.0948 18.1731 46.8347Z" fill="white"/>
</svg>
