<svg width="17" height="14" viewBox="0 0 17 14" fill="none" xmlns="http://www.w3.org/2000/svg">
<path d="M14.4006 1.09832C13.3002 0.585225 12.1235 0.21233 10.8934 0C10.7423 0.272199 10.5658 0.638313 10.4441 0.929555C9.13644 0.733575 7.84078 0.733575 6.55715 0.929555C6.43549 0.638313 6.25498 0.272199 6.10255 0C4.87107 0.21233 3.69308 0.586595 2.59264 1.10104C0.373039 4.44358 -0.228658 7.70309 0.072191 10.9163C1.54435 12.0119 2.97104 12.6774 4.37366 13.1129C4.71997 12.638 5.02884 12.133 5.29492 11.6009C4.78816 11.409 4.30279 11.1722 3.84418 10.8973C3.96585 10.8075 4.08486 10.7135 4.19984 10.6169C6.99706 11.9207 10.0363 11.9207 12.8001 10.6169C12.9164 10.7135 13.0354 10.8075 13.1558 10.8973C12.6958 11.1735 12.2091 11.4104 11.7023 11.6023C11.9684 12.133 12.276 12.6393 12.6236 13.1143C14.0276 12.6788 15.4556 12.0133 16.9277 10.9163C17.2808 7.19137 16.3247 3.96179 14.4006 1.09832ZM5.676 8.94022C4.8363 8.94022 4.14768 8.15901 4.14768 7.2077C4.14768 6.25638 4.8216 5.47383 5.676 5.47383C6.53042 5.47383 7.21902 6.25501 7.20432 7.2077C7.20565 8.15901 6.53042 8.94022 5.676 8.94022ZM11.3239 8.94022C10.4842 8.94022 9.79563 8.15901 9.79563 7.2077C9.79563 6.25638 10.4695 5.47383 11.3239 5.47383C12.1783 5.47383 12.867 6.25501 12.8523 7.2077C12.8523 8.15901 12.1783 8.94022 11.3239 8.94022Z" fill="white"/>
</svg>
