<svg width="17" height="16" viewBox="0 0 17 16" fill="none" xmlns="http://www.w3.org/2000/svg">
<path d="M11.6441 12.6029C11.8126 12.769 11.8126 12.93 11.6441 13.0858C10.991 13.7297 9.943 14.0517 8.5 14.0517C7.057 14.0517 6.00898 13.7297 5.35595 13.0858C5.18742 12.93 5.18742 12.769 5.35595 12.6029C5.41915 12.5406 5.49814 12.5094 5.59294 12.5094C5.68773 12.5094 5.76673 12.5406 5.82993 12.6029C6.3355 13.1118 7.22553 13.3662 8.5 13.3662C9.76394 13.3662 10.654 13.1118 11.1701 12.6029C11.2333 12.5406 11.3123 12.5094 11.4071 12.5094C11.5019 12.5094 11.5809 12.5406 11.6441 12.6029ZM6.79368 9.78319C6.79368 10.1675 6.65675 10.4946 6.3829 10.7646C6.10905 11.0347 5.77726 11.1697 5.38755 11.1697C4.99783 11.1697 4.66341 11.0347 4.38429 10.7646C4.10517 10.4946 3.96561 10.1675 3.96561 9.78319C3.96561 9.38854 4.10517 9.0562 4.38429 8.78618C4.66341 8.51615 4.99783 8.38114 5.38755 8.38114C5.77726 8.38114 6.10905 8.51875 6.3829 8.79397C6.65675 9.06919 6.79368 9.39893 6.79368 9.78319ZM13.0344 9.78319C13.0344 10.1675 12.8948 10.4946 12.6157 10.7646C12.3366 11.0347 12.0022 11.1697 11.6125 11.1697C11.2227 11.1697 10.891 11.0347 10.6171 10.7646C10.3432 10.4946 10.2063 10.1675 10.2063 9.78319C10.2063 9.39893 10.3432 9.06919 10.6171 8.79397C10.891 8.51875 11.2227 8.38114 11.6125 8.38114C12.0022 8.38114 12.3366 8.51615 12.6157 8.78618C12.8948 9.0562 13.0344 9.38854 13.0344 9.78319ZM17 7.91379C17 7.4049 16.8157 6.96871 16.447 6.60521C16.0784 6.24172 15.6307 6.05997 15.1041 6.05997C14.5774 6.05997 14.1245 6.24691 13.7454 6.62079C12.3761 5.68609 10.7382 5.18758 8.83178 5.12527L9.82714 0.716603L12.987 1.41763C12.987 1.80189 13.1239 2.12904 13.3978 2.39906C13.6716 2.66909 14.0034 2.8041 14.3931 2.8041C14.7828 2.8041 15.1173 2.66649 15.3964 2.39127C15.6755 2.11606 15.8151 1.78632 15.8151 1.40205C15.8151 1.01778 15.6755 0.688043 15.3964 0.412826C15.1173 0.137609 14.7828 0 14.3931 0C13.8244 0 13.403 0.259639 13.1292 0.778917L9.63755 0.0155784C9.43742 -0.0363494 9.30576 0.0467352 9.24257 0.264832L8.15242 5.12527C6.25651 5.19797 4.62918 5.70167 3.27045 6.63637C2.9018 6.2521 2.44362 6.05997 1.89591 6.05997C1.36927 6.05997 0.921623 6.24172 0.552974 6.60521C0.184325 6.96871 0 7.4049 0 7.91379C0 8.27729 0.0974288 8.60962 0.292286 8.91081C0.487144 9.21199 0.747831 9.44047 1.07435 9.59625C1.01115 9.87666 0.979554 10.1675 0.979554 10.4686C0.979554 11.9434 1.71685 13.2052 3.19145 14.2542C4.66605 15.3031 6.44083 15.8276 8.5158 15.8276C10.6013 15.8276 12.3813 15.3031 13.8559 14.2542C15.3305 13.2052 16.0678 11.9434 16.0678 10.4686C16.0678 10.1363 16.031 9.84031 15.9572 9.58067C16.2732 9.42489 16.526 9.199 16.7156 8.90302C16.9052 8.60703 17 8.27729 17 7.91379Z" fill="white"/>
</svg>
