<svg width="16" height="13" viewBox="0 0 16 13" fill="none" xmlns="http://www.w3.org/2000/svg">
<path d="M15.7158 1.56482C15.158 1.80951 14.5636 1.9717 13.9439 2.05045C14.5814 1.66982 15.068 1.0717 15.2968 0.350759C14.7024 0.705134 14.0461 0.955447 13.3468 1.09513C12.7824 0.494197 11.978 0.122009 11.1005 0.122009C9.39801 0.122009 8.02738 1.50388 8.02738 3.19795C8.02738 3.4417 8.04801 3.67607 8.09863 3.8992C5.54207 3.77451 3.27988 2.5492 1.7602 0.682634C1.49488 1.14295 1.33926 1.66982 1.33926 2.23701C1.33926 3.30201 1.8877 4.24607 2.7052 4.79263C2.21113 4.78326 1.72645 4.63982 1.31582 4.41388C1.31582 4.42326 1.31582 4.43545 1.31582 4.44763C1.31582 5.94201 2.38176 7.18326 3.77957 7.4692C3.52926 7.53763 3.25645 7.57045 2.97332 7.57045C2.77645 7.57045 2.5777 7.5592 2.39113 7.51795C2.78957 8.73576 3.9202 9.63107 5.26457 9.66013C4.21832 10.4786 2.88988 10.9717 1.45176 10.9717C1.19957 10.9717 0.957695 10.9604 0.71582 10.9295C2.07801 11.8079 3.69238 12.3095 5.43332 12.3095C11.0921 12.3095 14.1858 7.62201 14.1858 3.55888C14.1858 3.42295 14.1811 3.2917 14.1746 3.16138C14.7849 2.72826 15.2977 2.18732 15.7158 1.56482Z" fill="white"/>
</svg>
