<svg width="17" height="17" viewBox="0 0 17 17" fill="none" xmlns="http://www.w3.org/2000/svg">
<path fill-rule="evenodd" clip-rule="evenodd" d="M8.8604 17H8.08845C4.28946 17 2.3733 17.0001 1.19 15.81C8.22714e-07 14.6132 8.5844e-07 12.6956 8.5844e-07 8.8604L4.27412e-07 8.07508C-3.75584e-05 4.28946 -5.66301e-05 2.3733 1.19 1.19C2.3868 0 4.3112 0 8.1532 0H8.8604C12.7024 0 14.6268 0 15.8168 1.19C17 2.3868 17 4.3044 17 8.1396V8.8604C17 12.6888 17 14.6132 15.8168 15.81C14.6268 17 12.7024 17 8.8604 17ZM2.8696 5.17478C2.958 9.59478 5.2836 12.2536 9.1188 12.2536H9.35V9.72398C10.744 9.86678 11.7912 10.9072 12.2128 12.2536H14.2256C13.6816 10.2408 12.2604 9.12558 11.3832 8.70398C12.2604 8.18038 13.5048 6.90198 13.7972 5.17478H11.968C11.5872 6.58238 10.4448 7.85398 9.35 7.97638V5.17478H7.4868V10.0776C6.3512 9.79878 4.8756 8.41838 4.8144 5.17478H2.8696Z" fill="white"/>
</svg>
