<svg width="20" height="15" viewBox="0 0 20 15" fill="none" xmlns="http://www.w3.org/2000/svg">
<path d="M18.6945 3.02937C18.4784 2.22611 17.8451 1.59291 17.0419 1.37662C15.5747 0.975159 9.70558 0.975159 9.70558 0.975159C9.70558 0.975159 3.83671 0.975159 2.36946 1.3614C1.58176 1.57746 0.932999 2.22623 0.716934 3.02937C0.330811 4.49651 0.330811 7.53915 0.330811 7.53915C0.330811 7.53915 0.330811 10.5971 0.716934 12.0489C0.933227 12.8521 1.56631 13.4853 2.36958 13.7016C3.85216 14.1031 9.70581 14.1031 9.70581 14.1031C9.70581 14.1031 15.5747 14.1031 17.0419 13.7169C17.8452 13.5007 18.4784 12.8675 18.6947 12.0644C19.0807 10.5971 19.0807 7.5546 19.0807 7.5546C19.0807 7.5546 19.0961 4.49651 18.6945 3.02937ZM7.83699 10.35V4.72825L12.7174 7.53915L7.83699 10.35Z" fill="white"/>
</svg>
